<svg width="39" height="41" viewBox="0 0 39 41" fill="none" xmlns="http://www.w3.org/2000/svg">
<path d="M6.65186 40.0082C6.65186 40.0082 13.6311 22.5155 16.3942 21.9301C19.1572 21.3447 28.485 20.9066 29.0177 23.4468C29.5504 25.987 28.5783 29.9969 17.3829 34.7395C21.0041 30.7174 23.3423 27.5549 22.4199 26.7423C21.4975 25.9297 18.5022 25.8314 16.4937 28.3675C14.4851 30.9036 6.65186 40.0082 6.65186 40.0082Z" fill="#D96930"/>
<path d="M7.61736e-05 9.31503C7.61736e-05 9.31503 14.2114 15.9797 16.676 13.5582C19.124 11.6649 20.8921 12.6883 21.8954 13.1489C22.6188 13.4805 23.4355 13.8776 25.8711 12.4365C29.1399 10.5022 37 2.5 38 0C38.5 3.5 32.8399 16.4259 29.7286 18.4503C28.2424 19.6457 25.498 20.1574 22.3535 18.1249C20.4237 17.0748 18.4628 18.1515 18.1062 18.3295C16.9911 19.0255 14.0166 20.8554 11.1519 18.9682C8.24165 17.2038 -0.0289435 9.25567 7.61736e-05 9.31503Z" fill="#D96930"/>
<path d="M18.4959 9.85746C21.0603 9.85746 23.1391 7.80466 23.1391 5.27242C23.1391 2.74017 21.0603 0.687378 18.4959 0.687378C15.9316 0.687378 13.8528 2.74017 13.8528 5.27242C13.8528 7.80466 15.9316 9.85746 18.4959 9.85746Z" fill="#D96930"/>
</svg>
