<svg width="91" height="55" viewBox="0 0 91 55" fill="none" xmlns="http://www.w3.org/2000/svg">
<path d="M68.2694 33.3185C56.6855 35.7166 56.0979 41.7328 56.0979 54.2279C52.9921 54.2279 50.306 54.2279 47.1372 54.2279C47.1372 36.1583 47.1372 18.4884 47.1372 0.166423C57.0633 0.166423 66.4437 -0.212216 75.7612 0.313673C81.721 0.650243 85.5824 4.81529 87.4291 10.3687C89.2758 15.9221 88.2895 21.2231 83.9665 25.4091C82.0568 27.2603 79.6645 28.6276 77.1043 30.4997C81.4273 38.1146 86.044 46.1082 90.6608 54.2489C87.1143 54.2489 84.3652 54.2489 81.4902 54.2489L68.2694 33.3185ZM56.1189 8.47548C56.1189 15.6276 56.1189 22.0014 56.1189 28.4383C62.5195 25.9981 68.7101 24.1049 74.3972 21.2231C76.4957 20.1713 78.8461 17.7943 79.1399 15.3962C79.1818 15.0176 79.2448 14.681 79.2028 14.3023C79.1399 12.8509 78.6362 11.6308 77.8178 10.6842C76.7475 9.44312 75.1946 8.55963 72.6134 8.49652C67.2412 8.3703 61.8689 8.47548 56.1189 8.47548Z" fill="white"/>
<path d="M0.402844 54.2703C3.00503 54.2703 5.3344 54.2703 8.83895 54.2703C8.83895 49.7897 8.83895 45.4984 8.83895 41.144C8.83895 37.2314 8.79699 33.5502 8.79699 29.322C8.79699 14.6813 19.4575 7.48709 32.0278 9.7379C32.0278 24.3997 32.0278 39.2088 32.0278 54.2703C35.3434 54.2703 37.8197 54.2703 40.9255 54.2703C40.9255 36.5372 40.9255 19.0987 40.9255 0.0404897C31.8389 -0.00158148 22.5424 -0.380223 14.4001 2.37544C7.13914 4.83661 1.28423 11.9256 0.633684 20.1926C-0.268686 31.2994 0.402844 42.4693 0.402844 54.2703Z" fill="white"/>
<path d="M68.1646 10.1374C71.0815 10.3268 73.1591 11.6941 74.0195 14.5339C74.8169 17.1213 73.9985 19.351 72.0049 21.1391L72.6974 21.0549C73.6207 20.8446 74.4601 20.529 75.2156 19.9821C75.7612 19.5824 76.2229 19.1196 76.6006 18.5727C77.524 17.2264 77.8598 15.7539 77.6079 14.1342C77.461 13.1666 77.0623 12.241 76.4957 11.4627C75.5934 10.2216 74.3552 9.42223 72.7394 9.08566C71.9629 8.91738 71.1655 8.95945 70.389 9.1067C69.6335 9.27498 68.7312 9.54845 68.1646 10.1374Z" fill="white"/>
</svg>
