<svg width="242" height="144" viewBox="0 0 242 144" fill="none" xmlns="http://www.w3.org/2000/svg">
<path d="M181.844 26.8948C189.644 27.3971 195.199 31.0246 197.5 38.5587C199.633 45.4231 197.444 51.3387 192.113 56.0824L193.965 55.8591C196.434 55.3011 198.679 54.464 200.699 53.0129C202.158 51.9526 203.392 50.7248 204.403 49.2738C206.872 45.7021 207.77 41.7955 207.096 37.4983C206.703 34.9312 205.637 32.4756 204.122 30.4107C201.709 27.1181 198.398 24.9974 194.077 24.1044C192.001 23.658 189.868 23.7696 187.792 24.1602C185.772 24.6067 183.359 25.3322 181.844 26.8948Z" fill="#142435"/>
<path d="M0.642438 143.98C7.60088 143.98 13.8298 143.98 23.2013 143.98C23.2013 132.093 23.2013 120.708 23.2013 109.156C23.2013 98.7758 23.089 89.0095 23.089 77.7921C23.089 38.9497 51.5962 19.8634 85.21 25.8349C85.21 64.733 85.21 104.022 85.21 143.98C94.0764 143.98 100.698 143.98 109.003 143.98C109.003 96.9342 109.003 50.6694 109.003 0.10742C84.7049 -0.00419571 59.8453 -1.00874 38.0721 6.3021C18.6558 12.8316 2.99933 31.6389 1.25972 53.5714C-1.15329 83.038 0.642438 112.672 0.642438 143.98Z" fill="#142435"/>
<path d="M182.124 88.3949C151.147 94.757 149.576 110.718 149.576 143.868C141.271 143.868 134.088 143.868 125.614 143.868C125.614 95.9289 125.614 49.0503 125.614 0.441549C152.157 0.441549 177.241 -0.562991 202.157 0.832207C218.094 1.72513 228.42 12.7751 233.358 27.5084C238.296 42.2417 235.659 56.3053 224.099 67.4111C218.992 72.3222 212.595 75.9497 205.749 80.9166C217.309 101.119 229.654 122.326 242 143.924C232.516 143.924 225.165 143.924 217.477 143.924L182.124 88.3949ZM149.632 22.4857C149.632 41.4604 149.632 58.3702 149.632 75.4474C166.748 68.9737 183.302 63.951 198.51 56.3053C204.121 53.5149 210.406 47.2086 211.192 40.8465C211.304 39.842 211.472 38.949 211.36 37.9445C211.192 34.0937 209.845 30.8569 207.657 28.3455C204.795 25.0529 200.642 22.7089 193.74 22.5415C179.374 22.2066 165.008 22.4857 149.632 22.4857Z" fill="#142435"/>
</svg>
