<svg width="327" height="142" viewBox="0 0 327 142" fill="none" xmlns="http://www.w3.org/2000/svg">
<path d="M26.7669 115.666V138.973H22.4595V115.666H26.7669Z" fill="#142435"/>
<path d="M49.2978 138.03C47.8896 138.541 45.1146 139.17 42.3397 139.17C38.695 139.17 35.8372 138.266 33.7249 136.301C31.6126 134.336 30.3701 131.191 30.3701 127.497C30.4115 119.715 35.7958 115.391 42.9195 115.391C45.5702 115.391 47.5997 115.902 48.6351 116.374L47.7239 119.715C46.5642 119.204 45.156 118.85 42.9609 118.85C38.3636 118.85 34.8846 121.562 34.8846 127.34C34.8846 132.96 38.0737 135.79 42.3811 135.79C43.7064 135.79 44.659 135.633 45.156 135.397V129.383H41.3457V126.121H49.2978V138.03Z" fill="#142435"/>
<path d="M57.9125 115.666V125.099H66.9415V115.666H71.2489V138.973H66.9415V128.715H57.9125V138.973H53.6052V115.666H57.9125Z" fill="#142435"/>
<path d="M80.2363 119.165H74.0237V115.627H90.8391V119.165H84.5437V138.934H80.2363V119.165Z" fill="#142435"/>
<path d="M119.997 127.064C119.997 135.161 115.524 139.327 109.518 139.327C103.182 139.327 99.3712 134.336 99.3712 127.457C99.3712 120.344 103.554 115.352 109.85 115.352C116.435 115.313 119.997 120.501 119.997 127.064ZM103.886 127.379C103.886 132.213 105.956 135.947 109.684 135.947C113.494 135.947 115.441 132.017 115.441 127.222C115.441 122.859 113.619 118.654 109.684 118.654C105.874 118.654 103.886 122.545 103.886 127.379Z" fill="#142435"/>
<path d="M123.683 115.666H136.647V119.086H127.99V125.689H136.067V129.03H127.99V138.973H123.683V115.666Z" fill="#142435"/>
<path d="M148.202 115.981C149.693 115.666 151.805 115.47 153.503 115.47C156.693 115.47 158.722 116.138 160.089 117.435C161.166 118.418 161.787 119.951 161.787 121.601C161.787 124.746 159.84 126.75 156.983 127.654V127.733C158.971 128.322 160.213 130.091 160.793 132.685C161.621 136.34 162.118 138.069 162.615 138.973H160.834C160.462 138.305 159.923 136.261 159.26 133.314C158.515 129.934 156.982 128.44 153.752 128.283H149.9V138.973H148.161V115.981H148.202ZM149.9 126.947H153.793C157.562 126.947 160.047 124.942 160.047 121.876C160.047 118.3 157.272 116.846 153.421 116.846C151.764 116.846 150.521 117.003 149.9 117.16V126.947Z" fill="#142435"/>
<path d="M178.147 127.379H168.331V137.559H179.306V138.934H166.591V115.627H178.726V117.003H168.331V125.925H178.147V127.379Z" fill="#142435"/>
<path d="M183.572 115.902C184.98 115.666 186.761 115.47 188.832 115.47C191.773 115.47 193.968 116.177 195.335 117.435C196.536 118.536 197.24 120.068 197.24 121.994C197.24 123.999 196.66 125.492 195.542 126.671C193.968 128.401 191.317 129.265 188.335 129.265C187.217 129.265 186.223 129.226 185.353 128.99V138.973H183.614V115.902H183.572ZM185.27 127.536C186.14 127.772 187.217 127.89 188.377 127.89C192.767 127.89 195.417 125.885 195.417 122.191C195.417 118.536 192.601 116.885 188.708 116.885C187.134 116.885 185.892 117.042 185.27 117.16V127.536Z" fill="#142435"/>
<path d="M203.577 115.666V129.737C203.577 135.672 206.517 137.951 210.121 137.951C214.18 137.951 216.996 135.475 216.996 129.737V115.666H218.735V129.58C218.735 136.733 214.677 139.327 210.038 139.327C205.772 139.327 201.879 136.969 201.879 129.816V115.666H203.577Z" fill="#142435"/>
<path d="M224.658 115.981C226.025 115.666 227.764 115.47 229.587 115.47C232.652 115.47 234.64 116.099 236.006 117.396C237 118.339 237.497 119.597 237.497 121.248C237.497 123.606 235.717 125.65 233.273 126.436V126.514C235.302 126.947 238.45 128.637 238.45 132.449C238.45 134.336 237.746 135.829 236.628 136.89C235.012 138.462 232.362 139.131 228.883 139.131C227.019 139.131 225.569 139.013 224.617 138.934V115.981H224.658ZM226.356 125.885H229.96C233.521 125.885 235.758 123.881 235.758 121.287C235.758 118.025 233.149 116.806 229.504 116.806C227.889 116.806 226.936 116.924 226.398 117.042V125.885H226.356ZM226.356 137.558C227.06 137.716 228.096 137.755 229.38 137.755C233.149 137.755 236.669 136.458 236.669 132.528C236.669 128.833 233.356 127.261 229.463 127.261H226.356V137.558Z" fill="#142435"/>
<path d="M243.047 115.666H244.787V137.598H255.721V138.973H243.047V115.666Z" fill="#142435"/>
<path d="M261.064 115.666V138.973H259.324V115.666H261.064Z" fill="#142435"/>
<path d="M286.867 142C283.678 141.293 280.24 140.389 277.672 139.681C277.175 139.524 276.761 139.367 276.305 139.367C270.3 139.249 265.454 135.043 265.454 127.615C265.454 119.872 270.341 115.313 276.512 115.313C282.684 115.313 287.157 119.911 287.157 127.104C287.157 133.51 284.009 137.401 279.412 138.777V138.895C282.187 139.524 285.21 140.153 287.405 140.506L286.867 142ZM285.334 127.183C285.334 122.27 282.518 116.649 276.43 116.649C270.134 116.649 267.235 122.112 267.235 127.536C267.235 132.803 270.466 137.952 276.223 137.952C282.062 137.952 285.334 132.921 285.334 127.183Z" fill="#142435"/>
<path d="M293.204 115.666V129.737C293.204 135.672 296.144 137.951 299.747 137.951C303.806 137.951 306.623 135.475 306.623 129.737V115.666H308.362V129.58C308.362 136.733 304.303 139.327 299.665 139.327C295.399 139.327 291.505 136.969 291.505 129.816V115.666H293.204Z" fill="#142435"/>
<path d="M325.84 127.379H316.024V137.559H327V138.934H314.285V115.627H326.42V117.003H316.024V125.925H325.84V127.379Z" fill="#142435"/>
<path d="M267.152 101.321V93.1853H265.744V91.4166H267.152V90.9843C267.152 89.7659 267.483 88.5475 268.353 87.7221C269.057 87.0539 270.051 86.7788 270.963 86.7788C271.667 86.7788 272.205 86.8967 272.578 87.0146L272.371 88.8619C272.122 88.7833 271.791 88.7047 271.335 88.7047C270.093 88.7047 269.72 89.7266 269.72 90.9057V91.4166H271.874V93.1853H269.72V101.321H267.152Z" fill="#142435"/>
<path d="M275.146 97.0371C275.187 98.963 276.554 99.6704 278.086 99.6704C279.163 99.6704 279.95 99.5132 280.654 99.2381L281.027 100.928C280.199 101.282 279.039 101.518 277.672 101.518C274.483 101.518 272.661 99.5918 272.661 96.5262C272.661 93.6177 274.359 91.2202 277.382 91.2202C280.406 91.2202 281.524 93.6177 281.524 95.9366C281.524 96.4476 281.483 96.8013 281.441 97.0371H275.146ZM279.205 95.3471C279.205 94.2466 278.749 92.9103 277.299 92.9103C275.85 92.9103 275.27 94.2859 275.146 95.3471H279.205Z" fill="#142435"/>
<path d="M283.429 99.0809C283.968 99.3953 284.962 99.749 285.831 99.749C286.908 99.749 287.405 99.3167 287.405 98.6485C287.405 97.9804 287.033 97.6267 285.831 97.155C283.926 96.4083 283.181 95.3864 283.181 94.2859C283.181 92.5565 284.63 91.2202 286.908 91.2202C287.985 91.2202 288.855 91.4953 289.435 91.7705L288.938 93.4998C288.524 93.264 287.778 92.9889 286.95 92.9889C286.039 92.9889 285.583 93.4605 285.583 94.0501C285.583 94.6396 285.997 94.954 287.24 95.465C288.979 96.1331 289.808 97.0764 289.808 98.4913C289.808 100.378 288.317 101.596 285.79 101.596C284.672 101.596 283.554 101.321 282.891 100.928L283.429 99.0809Z" fill="#142435"/>
<path d="M294.736 88.6262V91.4168H297.097V93.1854H294.736V97.7839C294.736 99.0023 295.109 99.5133 296.02 99.5133C296.434 99.5133 296.724 99.4739 296.931 99.4346L296.973 101.282C296.6 101.4 295.937 101.518 295.192 101.518C294.281 101.518 293.535 101.243 293.038 100.771C292.5 100.221 292.251 99.356 292.251 98.0197V93.2247H290.843V91.4561H292.251V89.2551L294.736 88.6262Z" fill="#142435"/>
<path d="M301.57 88.7045C301.57 89.4512 301.031 90.0408 300.12 90.0408C299.292 90.0408 298.753 89.4512 298.753 88.7045C298.753 87.9577 299.333 87.3682 300.162 87.3682C301.031 87.3682 301.57 87.9184 301.57 88.7045ZM298.919 101.321V91.4164H301.446V101.321H298.919Z" fill="#142435"/>
<path d="M305.712 91.4166L307.203 96.4082C307.451 97.2728 307.658 98.0589 307.824 98.9236H307.865C308.031 98.0589 308.238 97.2728 308.486 96.4082L309.936 91.4166H312.545L308.942 101.321H306.498L302.937 91.4166H305.712Z" fill="#142435"/>
<path d="M319.545 101.321L319.379 100.26H319.338C318.758 101.046 317.723 101.557 316.522 101.557C314.575 101.557 313.415 100.181 313.415 98.6093C313.415 96.0938 315.735 94.8754 319.131 94.8754V94.6789C319.131 93.9322 318.8 92.9496 317.184 92.9496C316.232 92.9496 315.32 93.2247 314.658 93.6177L314.161 92.0456C314.865 91.6526 316.149 91.2202 317.681 91.2202C320.829 91.2202 321.699 93.1461 321.699 95.3078V99.0023C321.699 99.867 321.74 100.732 321.864 101.361H319.545V101.321ZM319.214 96.4476C317.64 96.4476 315.9 96.762 315.9 98.3341C315.9 99.356 316.563 99.7884 317.308 99.7884C318.22 99.7884 318.924 99.2381 319.131 98.4913C319.172 98.3341 319.214 98.1376 319.214 97.9411V96.4476Z" fill="#142435"/>
<path d="M324.266 86.9753H326.793V101.282H324.266V86.9753Z" fill="#142435"/>
<path d="M213.061 62.2531C190.199 66.7336 189.039 77.9744 189.039 101.321C182.91 101.321 177.608 101.321 171.354 101.321C171.354 67.559 171.354 34.5442 171.354 0.310978C190.945 0.310978 209.458 -0.396481 227.847 0.586103C239.61 1.21496 247.231 8.99702 250.875 19.3731C254.52 29.7492 252.573 39.6536 244.041 47.475C240.272 50.9337 235.551 53.4884 230.498 56.9864C239.03 71.2142 248.142 86.1495 257.253 101.36C250.254 101.36 244.828 101.36 239.154 101.36L213.061 62.2531ZM189.081 15.8358C189.081 29.1989 189.081 41.1079 189.081 53.1347C201.713 48.5755 213.931 45.0382 225.155 39.6536C229.297 37.6885 233.936 33.2472 234.515 28.7666C234.598 28.0591 234.723 27.4303 234.64 26.7228C234.515 24.0109 233.521 21.7313 231.906 19.9627C229.794 17.6438 226.729 15.993 221.635 15.8751C211.032 15.6393 200.429 15.8358 189.081 15.8358Z" fill="#142435"/>
<path d="M79.1181 101.4C84.2539 101.4 88.8512 101.4 95.7678 101.4C95.7678 93.0281 95.7678 85.0102 95.7678 76.8744C95.7678 69.564 95.685 62.6859 95.685 54.7859C95.685 27.4308 116.725 13.989 141.534 18.1945C141.534 45.5889 141.534 73.2585 141.534 101.4C148.078 101.4 152.965 101.4 159.095 101.4C159.095 68.267 159.095 35.6845 159.095 0.0756518C141.161 -0.00295488 122.813 -0.710416 106.743 4.43832C92.4131 9.03681 80.8577 22.282 79.5737 37.7283C77.7928 58.4804 79.1181 79.3505 79.1181 101.4Z" fill="#142435"/>
<path d="M0.135716 138.935C1.33681 138.935 2.37224 138.935 3.94609 138.935C3.94609 137.009 3.94609 135.161 3.94609 133.314C3.94609 131.624 3.90468 130.052 3.90468 128.244C3.90468 121.955 8.75048 118.851 14.4246 119.833C14.4246 126.122 14.4246 132.489 14.4246 138.935C15.9157 138.935 17.0339 138.935 18.4421 138.935C18.4421 131.31 18.4421 123.842 18.4421 115.667C14.3418 115.667 10.1172 115.47 6.43112 116.689C3.11775 117.75 0.467053 120.776 0.177133 124.353C-0.195621 129.069 0.135716 133.904 0.135716 138.935Z" fill="#142435"/>
<path d="M212.854 18.941C218.611 19.2947 222.712 21.8494 224.41 27.1554C225.983 31.9897 224.368 36.1559 220.434 39.4967L221.8 39.3394C223.623 38.9464 225.279 38.3569 226.77 37.335C227.847 36.5882 228.758 35.7235 229.504 34.7017C231.326 32.1862 231.989 29.435 231.492 26.4086C231.202 24.6007 230.415 22.8713 229.297 21.4171C227.516 19.0982 225.072 17.6047 221.883 16.9758C220.351 16.6614 218.777 16.74 217.244 17.0151C215.753 17.3296 213.973 17.8405 212.854 18.941Z" fill="#142435"/>
</svg>
